<?xml version="1.0" encoding="UTF-8"?>
<svg id="Capa_1" data-name="Capa 1" xmlns="http://www.w3.org/2000/svg" version="1.1" viewBox="0 0 100 125">
  <defs>
    <style>
      .cls-1 {
        fill: #000;
        stroke-width: 0px;
      }
    </style>
  </defs>
  <path class="cls-1" d="M75,50.1c0,1.1-.4,2.1-1.2,2.9l-16.5,16.4c-1.6,1.6-4.1,1.6-5.7,0-1.6-1.6-1.6-4.1,0-5.7l9.6-9.6H29c-2.2,0-4-1.8-4-4s1.8-4,4-4h32.4l-9.7-9.7c-1.6-1.6-1.6-4.1,0-5.7,1.6-1.6,4.1-1.6,5.7,0l16.5,16.4c.8.8,1.2,1.8,1.2,2.9,0,0,0,.2,0,.2Z"/>
</svg>