<?xml version="1.0" encoding="UTF-8"?>
<svg id="Capa_1" data-name="Capa 1" xmlns="http://www.w3.org/2000/svg" version="1.1" viewBox="0 0 64 80">
  <defs>
    <style>
      .cls-1 {
        fill: #000;
        stroke-width: 0px;
      }
    </style>
  </defs>
  <path class="cls-1" d="M62.7,16.3L47.7,1.3c-.2-.2-.4-.3-.7-.3h-30c-.3,0-.5.1-.7.3L1.3,16.3c-.2.2-.3.4-.3.7v2h0v28c0,.3.1.5.3.7l15,15c.2.2.4.3.7.3h30c.3,0,.5-.1.7-.3l15-15c.2-.2.3-.4.3-.7v-2h0v-28c0-.3-.1-.5-.3-.7ZM3,17.4L17.4,3h18.8c-2,1-3.8,2.2-5.5,3.9L7.1,30.5c-2.6-3.2-4.1-7.2-4.1-11.4h0v-1.7ZM32,55.6L8.4,32l23.6-23.6,23.6,23.6-23.6,23.6ZM19,61h-1.6l-14.4-14.4v-18.8c1,2,2.2,3.8,3.9,5.5l23.7,23.7c-3.2,2.6-7.2,4.1-11.4,4.1h-.1ZM61,46.6l-14.4,14.4h-18.8c2-1,3.8-2.2,5.5-3.9l23.7-23.7c2.6,3.2,4.1,7.2,4.1,11.4h0v1.7ZM57.1,30.7L33.5,7.1c3.2-2.6,7.2-4.1,11.4-4.1h1.7l14.4,14.4v18.8c-1-2-2.2-3.8-3.9-5.5Z"/>
</svg>