<?xml version="1.0" encoding="UTF-8"?>
<svg id="Capa_1" data-name="Capa 1" xmlns="http://www.w3.org/2000/svg" version="1.1" viewBox="0 0 87.6 110.5">
  <defs>
    <style>
      .cls-1 {
        fill: #000;
        stroke-width: 0px;
      }
    </style>
  </defs>
  <path class="cls-1" d="M86,78.9l-23.8-23.8c-2.1,3.1-4.8,5.7-7.9,7.7l23.8,23.8c2.2,2.2,5.7,2.2,7.8,0,2.2-2.2,2.2-5.7,0-7.8Z"/>
  <path class="cls-1" d="M60.2,51.3c10.1-15.1,6.1-35.5-9-45.6C36.2-4.4,15.8-.4,5.7,14.7-4.4,29.8-.4,50.2,14.7,60.3c10.9,7.3,25,7.4,36,.4,3.8-2.4,7-5.6,9.6-9.4ZM45,55c-12.2,6.7-27.5,2.2-34.2-10-6.7-12.2-2.2-27.5,10-34.2,12.2-6.7,27.5-2.2,34.2,10,4.3,7.8,4.1,17.2-.4,24.9-2.3,3.9-5.6,7.1-9.6,9.3Z"/>
</svg>